<?xml version="1.0" standalone="no"?>
<svg xmlns:xlink="http://www.w3.org/1999/xlink" id="wave" style="transform:rotate(0deg); transition: 0.3s" viewBox="0 0 1440 250" version="1.1" xmlns="http://www.w3.org/2000/svg"><defs><linearGradient id="sw-gradient-0" x1="0" x2="0" y1="1" y2="0"><stop stop-color="rgba(255, 194, 194, 1)" offset="0%"/><stop stop-color="rgba(255, 215, 168, 1)" offset="100%"/></linearGradient></defs><path style="transform:translate(0, 0px); opacity:1" fill="url(#sw-gradient-0)" d="M0,125L60,108.3C120,92,240,58,360,54.2C480,50,600,75,720,100C840,125,960,150,1080,137.5C1200,125,1320,75,1440,58.3C1560,42,1680,58,1800,70.8C1920,83,2040,92,2160,100C2280,108,2400,117,2520,129.2C2640,142,2760,158,2880,150C3000,142,3120,108,3240,100C3360,92,3480,108,3600,100C3720,92,3840,58,3960,37.5C4080,17,4200,8,4320,37.5C4440,67,4560,133,4680,158.3C4800,183,4920,167,5040,150C5160,133,5280,117,5400,120.8C5520,125,5640,150,5760,133.3C5880,117,6000,58,6120,66.7C6240,75,6360,150,6480,183.3C6600,217,6720,208,6840,187.5C6960,167,7080,133,7200,104.2C7320,75,7440,50,7560,37.5C7680,25,7800,25,7920,37.5C8040,50,8160,75,8280,87.5C8400,100,8520,100,8580,100L8640,100L8640,250L8580,250C8520,250,8400,250,8280,250C8160,250,8040,250,7920,250C7800,250,7680,250,7560,250C7440,250,7320,250,7200,250C7080,250,6960,250,6840,250C6720,250,6600,250,6480,250C6360,250,6240,250,6120,250C6000,250,5880,250,5760,250C5640,250,5520,250,5400,250C5280,250,5160,250,5040,250C4920,250,4800,250,4680,250C4560,250,4440,250,4320,250C4200,250,4080,250,3960,250C3840,250,3720,250,3600,250C3480,250,3360,250,3240,250C3120,250,3000,250,2880,250C2760,250,2640,250,2520,250C2400,250,2280,250,2160,250C2040,250,1920,250,1800,250C1680,250,1560,250,1440,250C1320,250,1200,250,1080,250C960,250,840,250,720,250C600,250,480,250,360,250C240,250,120,250,60,250L0,250Z"/></svg>