<?xml version="1.0" standalone="no"?>
<svg xmlns:xlink="http://www.w3.org/1999/xlink" id="wave" style="transform:rotate(0deg); transition: 0.3s" viewBox="0 0 1440 260" version="1.1" xmlns="http://www.w3.org/2000/svg"><defs><linearGradient id="sw-gradient-0" x1="0" x2="0" y1="1" y2="0"><stop stop-color="rgba(255, 194, 194, 1)" offset="0%"/><stop stop-color="rgba(255, 215, 168, 1)" offset="100%"/></linearGradient></defs><path style="transform:translate(0, 0px); opacity:1" fill="url(#sw-gradient-0)" d="M0,104L120,86.7C240,69,480,35,720,17.3C960,0,1200,0,1440,26C1680,52,1920,104,2160,112.7C2400,121,2640,87,2880,99.7C3120,113,3360,173,3600,203.7C3840,234,4080,234,4320,216.7C4560,199,4800,165,5040,160.3C5280,156,5520,182,5760,169C6000,156,6240,104,6480,108.3C6720,113,6960,173,7200,190.7C7440,208,7680,182,7920,151.7C8160,121,8400,87,8640,91C8880,95,9120,139,9360,130C9600,121,9840,61,10080,43.3C10320,26,10560,52,10800,60.7C11040,69,11280,61,11520,60.7C11760,61,12000,69,12240,91C12480,113,12720,147,12960,143C13200,139,13440,95,13680,73.7C13920,52,14160,52,14400,82.3C14640,113,14880,173,15120,182C15360,191,15600,147,15840,108.3C16080,69,16320,35,16560,43.3C16800,52,17040,104,17160,130L17280,156L17280,260L17160,260C17040,260,16800,260,16560,260C16320,260,16080,260,15840,260C15600,260,15360,260,15120,260C14880,260,14640,260,14400,260C14160,260,13920,260,13680,260C13440,260,13200,260,12960,260C12720,260,12480,260,12240,260C12000,260,11760,260,11520,260C11280,260,11040,260,10800,260C10560,260,10320,260,10080,260C9840,260,9600,260,9360,260C9120,260,8880,260,8640,260C8400,260,8160,260,7920,260C7680,260,7440,260,7200,260C6960,260,6720,260,6480,260C6240,260,6000,260,5760,260C5520,260,5280,260,5040,260C4800,260,4560,260,4320,260C4080,260,3840,260,3600,260C3360,260,3120,260,2880,260C2640,260,2400,260,2160,260C1920,260,1680,260,1440,260C1200,260,960,260,720,260C480,260,240,260,120,260L0,260Z"/></svg>